<?xml version="1.0" encoding="utf-8"?>
<!-- Generator: Adobe Illustrator 19.2.1, SVG Export Plug-In . SVG Version: 6.00 Build 0)  -->
<svg version="1.1" id="Layer_1" xmlns="http://www.w3.org/2000/svg" xmlns:xlink="http://www.w3.org/1999/xlink" x="0px" y="0px"
	 viewBox="0 0 480 136" style="enable-background:new 0 0 480 136;" xml:space="preserve">
<style type="text/css">
	.st0{opacity:5.000000e-002;}
	.st1{fill:#FFFFFF;}
</style>
<g class="st0">
	<path class="st1" d="M0.2-52.8c0,0,0.4,0.9,1.1,2.7c0.7,1.8,1.8,4.3,3,7.6c1.3,3.3,2.9,7.3,4.6,11.9c1.7,4.6,3.7,9.8,5.7,15.4
		C16.7-9.5,19-3.4,21.2,3.1c2.3,6.5,4.8,13.4,7.1,20.5c2.4,7.1,5,14.5,7.4,22c2.5,7.5,5,15.2,7.4,22.8c2.4,7.7,4.9,15.3,7.2,22.9
		c2.4,7.6,4.6,15,6.8,22.2c2.2,7.2,4.2,14.2,6.1,20.9c1,3.3,1.9,6.6,2.8,9.7c0.9,3.1,1.7,6.2,2.5,9.1c1.6,5.8,3,11.2,4.3,15.9
		c1.3,4.7,2.3,8.9,3.2,12.3c0.9,3.4,1.5,6.1,2,8c0.4,1.8,0.7,2.8,0.7,2.8s-0.4-0.9-1.1-2.7c-0.7-1.8-1.8-4.3-3-7.6
		c-1.3-3.3-2.9-7.3-4.6-11.9c-1.7-4.6-3.7-9.8-5.8-15.4c-1-2.8-2.1-5.8-3.2-8.8c-1.1-3.1-2.2-6.2-3.4-9.5
		c-2.3-6.5-4.7-13.4-7.2-20.5c-2.4-7.1-4.9-14.5-7.4-22c-2.5-7.5-5-15.2-7.4-22.8c-2.4-7.7-4.9-15.3-7.2-22.9
		c-2.4-7.6-4.6-15-6.7-22.3c-2.2-7.2-4.2-14.2-6.1-20.9C13.6-1.7,11.9-8,10.3-13.8C8.7-19.6,7.2-25,6-29.7C4.7-34.5,3.7-38.6,2.8-42
		c-0.9-3.4-1.5-6.1-2-8C0.4-51.8,0.2-52.8,0.2-52.8z"/>
</g>
<g class="st0">
	<path class="st1" d="M244.5-36c0,0-0.6,0.9-1.7,2.7c-1.1,1.7-2.7,4.3-4.8,7.6c-2.1,3.2-4.6,7.2-7.6,11.7c-3,4.5-6.3,9.6-10,15.1
		c-3.7,5.5-7.7,11.5-12,17.7c-4.3,6.2-8.8,12.9-13.6,19.6c-4.8,6.8-9.6,13.8-14.7,20.8c-5,7.1-10.2,14.2-15.4,21.4
		c-5.2,7.1-10.4,14.3-15.6,21.2c-5.1,7-10.3,13.8-15.2,20.4c-5,6.6-9.8,12.9-14.5,19c-2.3,3-4.6,5.9-6.7,8.8
		c-2.2,2.8-4.3,5.5-6.4,8.1c-4.1,5.2-7.9,10-11.2,14.2c-3.3,4.2-6.3,7.8-8.8,10.8c-2.4,3-4.4,5.3-5.7,6.9c-1.3,1.6-2,2.4-2,2.4
		s0.6-0.9,1.7-2.7c1.1-1.7,2.7-4.3,4.8-7.6c2.1-3.2,4.6-7.2,7.6-11.7c2.9-4.5,6.3-9.6,10-15.1c1.8-2.7,3.8-5.6,5.8-8.6
		c2-2.9,4.1-6,6.2-9.1c4.3-6.2,8.8-12.9,13.5-19.6c4.7-6.8,9.7-13.8,14.7-20.8c5-7.1,10.2-14.2,15.4-21.4
		c5.2-7.1,10.4-14.2,15.6-21.2c5.1-7,10.3-13.8,15.3-20.4c4.9-6.6,9.8-13,14.4-19c4.6-6,9-11.7,13.1-16.9c4.1-5.2,7.9-10,11.2-14.2
		c3.3-4.2,6.3-7.8,8.8-10.8c2.4-3,4.4-5.3,5.7-6.9C243.8-35.2,244.5-36,244.5-36z"/>
</g>
<g class="st0">
	<path class="st1" d="M0.2-52.8c0,0,1,0.8,2.9,2.2c1.9,1.5,4.6,3.6,8,6.4c3.4,2.8,7.6,6.1,12.4,10.1c4.8,3.9,10.2,8.3,16,13.2
		C45.3-16,51.6-10.8,58.2-5.1C64.8,0.5,71.8,6.4,79,12.7c7.2,6.2,14.6,12.6,22.1,19.2c7.5,6.6,15,13.3,22.6,20
		c7.5,6.8,15,13.5,22.4,20.2c7.4,6.7,14.6,13.3,21.6,19.7c7,6.4,13.7,12.7,20,18.6c3.2,3,6.3,5.9,9.2,8.7c3,2.8,5.8,5.5,8.6,8.2
		c5.5,5.2,10.5,10,14.9,14.3c4.4,4.3,8.3,8.1,11.4,11.2c3.2,3.1,5.6,5.6,7.3,7.3c1.7,1.7,2.6,2.6,2.6,2.6s-1-0.8-2.9-2.2
		c-1.9-1.5-4.6-3.6-8-6.4c-3.4-2.8-7.6-6.1-12.4-10.1c-4.8-3.9-10.2-8.3-16-13.2c-2.9-2.4-5.9-5-9.1-7.6c-3.1-2.6-6.3-5.4-9.7-8.2
		c-6.6-5.6-13.6-11.6-20.8-17.8c-7.2-6.2-14.6-12.6-22-19.2c-7.5-6.6-15-13.3-22.6-20c-7.5-6.8-15-13.5-22.4-20.2
		C88.5,31,81.3,24.3,74.3,17.9c-7-6.4-13.7-12.7-20-18.6c-6.4-5.9-12.3-11.6-17.8-16.8c-5.5-5.2-10.5-10-14.9-14.3
		C17-36.1,13.2-39.9,10-43c-3.2-3.1-5.6-5.6-7.3-7.3C1.1-51.9,0.2-52.8,0.2-52.8z"/>
</g>
<g class="st0">
	<path class="st1" d="M244.5-36c0,0-1.1,0.7-3,1.9c-2,1.2-4.9,3.1-8.6,5.4c-3.7,2.3-8.2,5.1-13.4,8.2c-5.2,3.1-11,6.7-17.5,10.5
		c-6.4,3.8-13.4,7.9-20.8,12.2c-7.4,4.3-15.2,8.9-23.3,13.4c-8.1,4.6-16.5,9.4-25,14.2c-8.6,4.8-17.3,9.6-26,14.4
		c-8.7,4.8-17.5,9.6-26.1,14.2c-8.6,4.7-17.1,9.2-25.4,13.6c-8.2,4.4-16.2,8.5-23.8,12.5c-3.8,2-7.5,3.9-11.1,5.7
		c-3.6,1.8-7.1,3.6-10.4,5.3c-6.6,3.4-12.8,6.5-18.2,9.1c-5.4,2.7-10.2,5-14.1,6.9c-3.9,1.9-7,3.4-9.1,4.4c-2.1,1-3.2,1.5-3.2,1.5
		s1.1-0.7,3-1.9c2-1.2,4.9-3.1,8.6-5.4c3.7-2.3,8.2-5.1,13.4-8.2c5.2-3.2,11-6.7,17.5-10.5c3.2-1.9,6.6-3.9,10-5.9
		c3.5-2,7.1-4.1,10.8-6.3C36.1,75,43.9,70.4,52,65.8c8.1-4.6,16.5-9.4,25-14.2c8.5-4.8,17.3-9.6,26-14.4c8.7-4.8,17.5-9.5,26.1-14.2
		c8.6-4.7,17.1-9.1,25.4-13.5c8.2-4.4,16.2-8.5,23.8-12.5c7.6-4,14.8-7.6,21.4-11c6.6-3.4,12.8-6.4,18.2-9.1
		c5.4-2.7,10.2-5,14.1-6.9c3.9-1.9,7-3.4,9.1-4.4C243.3-35.5,244.5-36,244.5-36z"/>
</g>
<g class="st0">
	<path class="st1" d="M310.2,29.7c0,0,0.5,0.5,1.5,1.3c0.9,0.9,2.4,2.2,4.1,3.9c1.8,1.7,3.9,3.7,6.3,6.1c2.4,2.4,5.1,5,8,8
		c2.9,3,6.1,6.2,9.3,9.6c3.3,3.4,6.7,7.1,10.2,10.9c3.5,3.8,7.1,7.7,10.8,11.8c3.6,4,7.3,8.2,10.9,12.3c3.6,4.2,7.3,8.3,10.8,12.5
		c3.5,4.1,7,8.2,10.3,12.2c3.3,4,6.5,7.9,9.4,11.6c3,3.7,5.7,7.3,8.3,10.5c2.6,3.3,4.8,6.3,6.9,9c2,2.7,3.8,5.1,5.2,7
		c1.4,2,2.5,3.5,3.3,4.6c0.7,1.1,1.1,1.6,1.1,1.6s-0.5-0.5-1.5-1.3c-0.9-0.9-2.4-2.2-4.1-3.9c-1.8-1.7-3.9-3.7-6.3-6.1
		c-2.4-2.4-5.1-5-8-8c-2.9-3-6.1-6.2-9.3-9.6c-3.3-3.4-6.7-7.1-10.2-10.9c-3.5-3.8-7.1-7.7-10.8-11.8c-3.6-4-7.3-8.2-10.9-12.3
		c-3.6-4.2-7.2-8.3-10.8-12.5c-3.5-4.1-7-8.2-10.3-12.2c-3.3-4-6.5-7.9-9.4-11.6c-3-3.7-5.7-7.3-8.3-10.5c-2.6-3.3-4.8-6.3-6.9-9
		c-2-2.7-3.8-5.1-5.2-7c-1.4-2-2.5-3.5-3.3-4.6C310.6,30.3,310.2,29.7,310.2,29.7z"/>
</g>
<g class="st0">
	<path class="st1" d="M468.8-26.4c0,0-0.1,0.8-0.3,2.2c-0.2,1.4-0.4,3.5-0.8,6.1c-0.4,2.6-0.8,5.8-1.4,9.5c-0.6,3.7-1.2,7.8-2,12.3
		c-0.7,4.5-1.6,9.3-2.5,14.5c-0.9,5.1-1.9,10.5-3,16.1c-1.1,5.6-2.2,11.3-3.5,17.2c-1.2,5.8-2.5,11.8-3.8,17.7
		c-1.3,5.9-2.7,11.8-4,17.6c-1.4,5.8-2.8,11.5-4.1,17c-1.4,5.5-2.8,10.8-4.1,15.9c-1.3,5-2.7,9.8-3.9,14.2
		c-1.2,4.4-2.4,8.4-3.4,11.9c-1,3.6-2,6.6-2.8,9.2c-0.8,2.5-1.5,4.5-1.9,5.9c-0.5,1.4-0.7,2.1-0.7,2.1s0.1-0.8,0.2-2.2
		c0.2-1.4,0.4-3.5,0.8-6.1c0.4-2.6,0.8-5.8,1.4-9.5c0.5-3.7,1.2-7.8,1.9-12.3c0.7-4.5,1.6-9.3,2.5-14.5c0.9-5.1,1.9-10.5,3-16.1
		c1.1-5.6,2.2-11.3,3.5-17.2c1.2-5.8,2.5-11.7,3.8-17.7c1.3-5.9,2.7-11.8,4.1-17.6c1.4-5.8,2.8-11.5,4.1-17
		c1.4-5.5,2.8-10.8,4.1-15.9c1.3-5,2.7-9.8,3.9-14.2c1.2-4.4,2.4-8.4,3.4-11.9c1-3.6,2-6.6,2.8-9.2c0.8-2.5,1.5-4.5,1.9-5.9
		C468.5-25.7,468.8-26.4,468.8-26.4z"/>
</g>
<g class="st0">
	<path class="st1" d="M310.2,29.7c0,0,0.8,0.2,2.4,0.6c1.6,0.4,3.9,0.9,6.9,1.7c3,0.7,6.5,1.6,10.6,2.7c4.1,1.1,8.7,2.3,13.7,3.7
		c5,1.4,10.5,2.9,16.2,4.6c5.7,1.7,11.8,3.5,18,5.4c6.2,1.9,12.7,3.9,19.2,6c6.5,2.1,13.1,4.2,19.7,6.4c6.6,2.2,13.2,4.4,19.6,6.6
		c6.5,2.2,12.8,4.4,19,6.6c6.1,2.2,12.1,4.3,17.7,6.4c5.6,2.1,10.9,4.1,15.7,6c4.9,1.8,9.3,3.6,13.3,5.2c3.9,1.5,7.4,3,10.2,4.1
		c2.8,1.1,5,2.1,6.5,2.8c1.5,0.7,2.3,1,2.3,1s-0.8-0.2-2.4-0.6c-1.6-0.4-3.9-0.9-6.9-1.7c-3-0.7-6.5-1.6-10.6-2.7
		c-4.1-1.1-8.7-2.3-13.7-3.7c-5-1.4-10.5-2.9-16.2-4.6c-5.7-1.7-11.8-3.5-18-5.4c-6.2-1.9-12.7-3.9-19.2-6
		c-6.5-2.1-13.1-4.2-19.7-6.4c-6.6-2.2-13.2-4.4-19.6-6.6c-6.5-2.2-12.8-4.4-19-6.6c-6.1-2.2-12.1-4.3-17.7-6.4
		c-5.6-2.1-10.9-4.1-15.7-6c-4.9-1.8-9.3-3.6-13.3-5.2c-3.9-1.5-7.4-3-10.2-4.1c-2.8-1.1-5-2.1-6.5-2.7
		C311,30,310.2,29.7,310.2,29.7z"/>
</g>
<g class="st0">
	<path class="st1" d="M468.8-26.4c0,0-0.5,0.7-1.3,2.1c-0.9,1.3-2.1,3.3-3.8,5.8c-1.7,2.5-3.7,5.5-6,9c-2.3,3.4-5,7.3-8,11.5
		c-2.9,4.2-6.1,8.8-9.6,13.5c-3.4,4.8-7.1,9.8-10.9,14.9c-3.8,5.2-7.8,10.5-11.8,15.8c-4,5.4-8.2,10.8-12.4,16.2
		c-4.2,5.4-8.4,10.8-12.6,16.1C388.2,83.8,384.1,89,380,94c-4,5-8,9.8-11.7,14.3c-3.8,4.5-7.4,8.7-10.7,12.6
		c-3.3,3.9-6.4,7.5-9.2,10.6c-2.7,3.2-5.2,5.8-7.2,8.1c-2,2.2-3.6,4-4.7,5.1c-1.1,1.2-1.7,1.8-1.7,1.8s0.5-0.7,1.3-2.1
		c0.9-1.3,2.1-3.3,3.8-5.8c1.7-2.5,3.7-5.5,6-9c2.3-3.5,5-7.3,8-11.5c2.9-4.2,6.1-8.8,9.6-13.5c3.4-4.8,7.1-9.8,10.9-14.9
		c3.8-5.2,7.8-10.5,11.8-15.8c4-5.4,8.2-10.8,12.4-16.2c4.2-5.4,8.4-10.8,12.6-16c4.2-5.3,8.3-10.4,12.4-15.4c4-5,8-9.8,11.7-14.3
		c3.8-4.5,7.4-8.7,10.7-12.6c3.3-3.9,6.4-7.5,9.2-10.6c2.7-3.2,5.2-5.8,7.2-8.1c2-2.2,3.6-4,4.7-5.1
		C468.2-25.8,468.8-26.4,468.8-26.4z"/>
</g>
<g class="st0">
	<path class="st1" d="M217.3,67c0,0,1.2,0.4,3.3,1.3c2.1,0.9,5,2.2,8.4,4c3.4,1.8,7.3,3.9,11.4,6.4c2,1.2,4.1,2.5,6.2,3.9
		c2.1,1.3,4.2,2.8,6.3,4.2c2.1,1.5,4.1,2.9,6.1,4.4c2,1.5,4,3,5.8,4.4c3.7,2.9,7.1,5.8,10,8.4c2.8,2.6,5.1,4.8,6.7,6.5
		c1.6,1.6,2.4,2.6,2.4,2.6s-1.2-0.4-3.3-1.3c-2.1-0.9-5-2.2-8.4-4c-3.4-1.8-7.3-3.9-11.4-6.4c-2-1.2-4.1-2.5-6.2-3.9
		c-2.1-1.3-4.2-2.8-6.3-4.2c-2.1-1.5-4.1-2.9-6.1-4.4c-2-1.5-4-3-5.8-4.5c-3.7-2.9-7.1-5.8-10-8.4c-2.8-2.6-5.1-4.8-6.7-6.5
		C218.1,68,217.3,67,217.3,67z"/>
</g>
<g class="st0">
	<path class="st1" d="M281.5,24.4c0,0,0.1,0.3,0.3,1c0.1,0.6,0.4,1.6,0.6,2.8c0.5,2.4,1.2,5.9,1.8,10c0.6,4.2,1.2,9,1.6,14.2
		c0.2,2.6,0.4,5.3,0.5,8c0.2,2.7,0.2,5.5,0.3,8.3c0.1,2.8,0.1,5.6,0.1,8.3c0,2.7,0,5.4-0.1,8c-0.2,5.2-0.5,10.1-0.9,14.3
		c-0.2,2.1-0.4,4-0.6,5.7c-0.2,1.7-0.4,3.2-0.6,4.4c-0.2,1.2-0.4,2.2-0.5,2.8c-0.1,0.7-0.2,1-0.2,1s-0.1-0.3-0.3-1
		c-0.1-0.6-0.4-1.6-0.6-2.8c-0.2-1.2-0.6-2.7-0.9-4.4c-0.3-1.7-0.6-3.6-0.9-5.7c-0.6-4.2-1.2-9-1.6-14.2c-0.2-2.6-0.4-5.3-0.5-8
		c-0.2-2.7-0.2-5.5-0.3-8.3c-0.1-2.8-0.1-5.6-0.1-8.3c0-2.7,0-5.4,0.1-8c0.2-5.2,0.5-10.1,0.9-14.3c0.4-4.2,0.9-7.7,1.2-10.1
		c0.2-1.2,0.4-2.2,0.5-2.8C281.5,24.7,281.5,24.4,281.5,24.4z"/>
</g>
<g class="st0">
	<path class="st1" d="M217.3,67c0,0,0.4-0.1,1.2-0.1c0.8-0.1,1.9-0.2,3.3-0.3c2.8-0.3,6.8-0.5,11.6-0.7c4.8-0.1,10.4-0.2,16.4,0
		c3,0.1,6.1,0.2,9.2,0.3c3.1,0.1,6.3,0.4,9.5,0.6c3.2,0.3,6.4,0.5,9.5,0.8c3.1,0.3,6.2,0.6,9.2,1c5.9,0.7,11.5,1.6,16.2,2.4
		c2.4,0.4,4.5,0.8,6.4,1.2c1.9,0.4,3.6,0.8,5,1.1c1.4,0.3,2.5,0.6,3.2,0.8c0.7,0.2,1.1,0.3,1.1,0.3s-0.4,0.1-1.2,0.1
		c-0.8,0.1-1.9,0.2-3.3,0.3c-1.4,0.1-3.1,0.3-5.1,0.4c-2,0.1-4.2,0.2-6.6,0.3c-4.8,0.1-10.4,0.2-16.4,0c-3-0.1-6.1-0.2-9.2-0.3
		c-3.1-0.1-6.3-0.4-9.5-0.6c-3.2-0.3-6.4-0.5-9.5-0.8c-3.1-0.3-6.2-0.6-9.2-1c-5.9-0.7-11.5-1.6-16.2-2.4c-4.7-0.8-8.7-1.7-11.4-2.4
		c-1.4-0.3-2.5-0.6-3.2-0.8C217.6,67.1,217.3,67,217.3,67z"/>
</g>
<g class="st0">
	<path class="st1" d="M281.5,24.4c0,0-0.1,0.4-0.2,1.1c-0.2,0.7-0.4,1.8-0.8,3.1c-0.7,2.7-1.7,6.5-3.2,11c-1.4,4.5-3.2,9.7-5.3,15.2
		c-1,2.8-2.2,5.6-3.3,8.4c-1.2,2.9-2.4,5.7-3.6,8.6c-1.3,2.9-2.5,5.7-3.9,8.5c-1.3,2.8-2.6,5.5-3.9,8.2c-2.6,5.3-5.2,10.1-7.6,14.2
		c-1.2,2.1-2.3,3.9-3.3,5.6c-1,1.6-1.9,3.1-2.7,4.2c-0.7,1.2-1.4,2.1-1.8,2.7c-0.4,0.6-0.7,0.9-0.7,0.9s0.1-0.4,0.2-1.1
		c0.2-0.7,0.4-1.8,0.8-3.1c0.4-1.3,0.8-3,1.3-4.8c0.5-1.9,1.2-3.9,1.9-6.2c1.4-4.5,3.2-9.7,5.3-15.2c1.1-2.7,2.2-5.6,3.3-8.4
		c1.2-2.9,2.4-5.7,3.7-8.6c1.3-2.9,2.6-5.7,3.9-8.5c1.3-2.8,2.6-5.5,4-8.2c2.6-5.3,5.2-10.1,7.6-14.2c2.3-4.1,4.4-7.5,6-9.8
		c0.7-1.2,1.4-2.1,1.8-2.7C281.3,24.7,281.5,24.4,281.5,24.4z"/>
</g>
</svg>
