<svg version="1.1" id="new_logo" xmlns="http://www.w3.org/2000/svg" xmlns:xlink="http://www.w3.org/1999/xlink" x="0px" y="0px" viewBox="0 0 534 94" style="enable-background:new 0 0 534 94;" xml:space="preserve">
	<g>
		<path d="M17.43,90.25H1.29V2.5h16.14v34.6h2.31c1.71-3.43,4.18-6.08,7.43-7.96c3.24-1.88,7.38-2.82,12.42-2.82
			c3.76,0,7.32,0.71,10.69,2.13c3.37,1.42,6.32,3.49,8.84,6.2c2.52,2.72,4.52,6.04,6.02,9.97c1.49,3.93,2.24,8.4,2.24,13.41v2.26
			c0,5.1-0.73,9.61-2.18,13.54c-1.45,3.93-3.42,7.25-5.89,9.97c-2.48,2.72-5.4,4.76-8.77,6.14C47.16,91.31,43.51,92,39.59,92
			c-2.9,0-5.42-0.29-7.56-0.88c-2.14-0.59-3.99-1.38-5.57-2.38c-1.58-1-2.9-2.15-3.97-3.45c-1.07-1.29-1.99-2.65-2.75-4.07h-2.31
			V90.25z M34.34,76.96c5.04,0,9.11-1.52,12.23-4.58c3.12-3.05,4.67-7.21,4.67-12.47v-1.5c0-5.27-1.56-9.42-4.67-12.47
			c-3.12-3.05-7.19-4.58-12.23-4.58c-5.04,0-9.12,1.57-12.23,4.7c-3.12,3.13-4.67,7.25-4.67,12.35v1.5c0,5.1,1.56,9.21,4.67,12.35
			C25.22,75.39,29.3,76.96,34.34,76.96z"/>
		<path d="M116.48,81.22c-1.71,3.93-4.1,6.71-7.17,8.34c-3.07,1.63-6.66,2.44-10.76,2.44c-3.84,0-7.45-0.71-10.82-2.13
			c-3.37-1.42-6.34-3.51-8.9-6.27c-2.56-2.76-4.59-6.1-6.08-10.03c-1.49-3.93-2.24-8.4-2.24-13.41v-2.01c0-4.93,0.72-9.36,2.18-13.29
			c1.45-3.93,3.41-7.27,5.89-10.03c2.48-2.76,5.36-4.87,8.65-6.33c3.29-1.46,6.81-2.19,10.57-2.19c4.52,0,8.17,0.75,10.95,2.26
			c2.77,1.5,4.97,3.84,6.6,7.02h2.31v-7.52h16.14v43.37c0,2.51,1.15,3.76,3.46,3.76h2.43v15.04h-11.01c-2.9,0-5.27-0.83-7.11-2.51
			c-1.84-1.67-2.75-3.84-2.75-6.52H116.48z M102.13,76.96c4.69,0,8.45-1.52,11.27-4.58c2.82-3.05,4.23-7.21,4.23-12.47v-1.5
			c0-5.27-1.41-9.42-4.23-12.47c-2.82-3.05-6.58-4.58-11.27-4.58c-4.7,0-8.45,1.53-11.27,4.58c-2.82,3.05-4.23,7.21-4.23,12.47v1.5
			c0,5.27,1.41,9.42,4.23,12.47C93.68,75.43,97.43,76.96,102.13,76.96z"/>
		<path d="M191.34,81.22h-2.31c-0.68,1.42-1.52,2.78-2.5,4.07c-0.98,1.3-2.26,2.44-3.84,3.45c-1.58,1-3.46,1.8-5.64,2.38
			c-2.18,0.58-4.8,0.88-7.88,0.88c-3.93,0-7.58-0.69-10.95-2.07c-3.37-1.38-6.32-3.43-8.84-6.14c-2.52-2.72-4.48-6.04-5.89-9.97
			c-1.41-3.93-2.11-8.44-2.11-13.54v-2.26c0-5.01,0.75-9.48,2.24-13.41c1.49-3.93,3.54-7.25,6.15-9.97c2.6-2.71,5.64-4.78,9.09-6.2
			c3.46-1.42,7.11-2.13,10.95-2.13c5.12,0,9.18,0.94,12.17,2.82c2.99,1.88,5.33,4.53,7.04,7.96h2.31V2.5h16.14v87.75h-16.14V81.22z
			M174.43,76.96c5.04,0,9.11-1.57,12.23-4.7c3.12-3.13,4.67-7.25,4.67-12.35v-1.5c0-5.1-1.56-9.21-4.67-12.35
			c-3.12-3.13-7.19-4.7-12.23-4.7c-5.04,0-9.12,1.53-12.23,4.58c-3.12,3.05-4.67,7.21-4.67,12.47v1.5c0,5.27,1.56,9.42,4.67,12.47
			C165.32,75.43,169.4,76.96,174.43,76.96z"/>
		<path d="M210.33,28.07h18.83V2.5h16.14v25.57h22.93v15.04H245.3v28.33c0,2.51,1.15,3.76,3.46,3.76h17.16v15.04h-26.9
			c-2.9,0-5.27-0.92-7.11-2.76c-1.84-1.84-2.75-4.18-2.75-7.02V43.11h-18.83V28.07z"/>
		<path d="M272.43,28.07h26.9v9.03h2.31c1.19-3.43,3.22-6.08,6.08-7.96c2.86-1.88,6.3-2.82,10.31-2.82c6.32,0,11.4,1.94,15.24,5.83
			c3.84,3.89,5.76,9.8,5.76,17.74v2.76l-16.65,1.5v-1.76c0-3.43-0.9-6.16-2.69-8.21c-1.79-2.05-4.48-3.07-8.07-3.07
			s-6.4,1.21-8.45,3.64c-2.05,2.42-3.07,5.89-3.07,10.4V75.2h14.6v15.04h-43.8V75.2h13.06V43.11h-11.53V28.07z"/>
		<path d="M388,81.22c-1.71,3.93-4.1,6.71-7.17,8.34c-3.07,1.63-6.66,2.44-10.76,2.44c-3.84,0-7.45-0.71-10.82-2.13
			c-3.37-1.42-6.34-3.51-8.9-6.27c-2.56-2.76-4.59-6.1-6.08-10.03c-1.49-3.93-2.24-8.4-2.24-13.41v-2.01c0-4.93,0.72-9.36,2.18-13.29
			c1.45-3.93,3.41-7.27,5.89-10.03c2.48-2.76,5.36-4.87,8.65-6.33c3.29-1.46,6.81-2.19,10.57-2.19c4.52,0,8.17,0.75,10.95,2.26
			c2.77,1.5,4.97,3.84,6.6,7.02h2.31v-7.52h16.14v43.37c0,2.51,1.15,3.76,3.46,3.76h2.43v15.04h-11.01c-2.9,0-5.27-0.83-7.11-2.51
			c-1.84-1.67-2.75-3.84-2.75-6.52H388z M373.66,76.96c4.69,0,8.45-1.52,11.27-4.58c2.82-3.05,4.23-7.21,4.23-12.47v-1.5
			c0-5.27-1.41-9.42-4.23-12.47c-2.82-3.05-6.58-4.58-11.27-4.58c-4.7,0-8.45,1.53-11.27,4.58c-2.82,3.05-4.23,7.21-4.23,12.47v1.5
			c0,5.27,1.41,9.42,4.23,12.47C365.2,75.43,368.96,76.96,373.66,76.96z"/>
		<path d="M432.51,45.62c0,2.01,1.07,3.45,3.2,4.33c2.13,0.88,6.02,1.61,11.65,2.19c6.49,0.67,11.78,2.57,15.88,5.7
			c4.1,3.13,6.15,7.5,6.15,13.1v0.75c0,6.19-2.31,11.12-6.92,14.79c-4.61,3.68-11.1,5.52-19.47,5.52c-4.95,0-9.18-0.63-12.68-1.88
			c-3.5-1.25-6.4-2.82-8.71-4.7c-2.31-1.88-4.08-3.97-5.32-6.27c-1.24-2.3-2.07-4.53-2.5-6.71l14.86-4.76
			c0.68,2.68,2.11,5.01,4.29,7.02c2.18,2.01,5.53,3.01,10.05,3.01c4.01,0,6.77-0.61,8.26-1.82c1.49-1.21,2.24-2.53,2.24-3.95
			c0-0.83-0.19-1.61-0.58-2.32c-0.38-0.71-1.09-1.38-2.11-2.01c-1.02-0.63-2.41-1.15-4.16-1.57c-1.75-0.42-3.95-0.75-6.6-1
			c-7.17-0.58-12.87-2.4-17.1-5.45c-4.23-3.05-6.34-7.54-6.34-13.48v-0.75c0-3.09,0.68-5.81,2.05-8.15c1.36-2.34,3.16-4.32,5.38-5.95
			c2.22-1.63,4.78-2.86,7.68-3.7c2.9-0.83,5.89-1.25,8.97-1.25c4.01,0,7.49,0.48,10.44,1.44c2.95,0.96,5.44,2.22,7.49,3.76
			c2.05,1.55,3.71,3.26,4.99,5.14c1.28,1.88,2.26,3.7,2.95,5.45l-14.6,5.77c-0.77-2.26-2.09-4.03-3.97-5.33
			c-1.88-1.29-4.31-1.94-7.3-1.94c-2.73,0-4.78,0.48-6.15,1.44C433.19,43.01,432.51,44.2,432.51,45.62z"/>
		<path d="M489.05,90.25h-16.14V2.5h16.14v35.6h2.3c1.62-3.76,4.01-6.66,7.17-8.71c3.16-2.05,7.04-3.07,11.65-3.07
			c3.16,0,6.06,0.5,8.71,1.5c2.65,1,4.95,2.51,6.92,4.51c1.96,2.01,3.5,4.58,4.61,7.71c1.11,3.13,1.67,6.83,1.67,11.09v39.11h-16.14
			V54.89c0-4.43-1.09-7.92-3.27-10.47c-2.18-2.55-5.31-3.82-9.41-3.82c-4.78,0-8.35,1.57-10.69,4.7c-2.35,3.13-3.52,7.33-3.52,12.6
			V90.25z"/>
	</g>
</svg>